<mxfile host="Electron" modified="2023-11-26T04:08:22.479Z" agent="Mozilla/5.0 (Windows NT 10.0; Win64; x64) AppleWebKit/537.36 (KHTML, like Gecko) draw.io/22.1.2 Chrome/114.0.5735.289 Electron/25.9.4 Safari/537.36" etag="wOgiwmeo2mWRbW-5niFs" version="22.1.2" type="device">
  <diagram name="Page-1" id="XLjCAUKeXCn1MkWukdRa">
    <mxGraphModel dx="1104" dy="1608" grid="1" gridSize="10" guides="1" tooltips="1" connect="1" arrows="1" fold="1" page="1" pageScale="1" pageWidth="850" pageHeight="1100" math="0" shadow="0">
      <root>
        <mxCell id="0" />
        <mxCell id="1" parent="0" />
        <mxCell id="-h9XOO3ejCWppk7EF09S-24" value="" style="edgeStyle=orthogonalEdgeStyle;rounded=0;orthogonalLoop=1;jettySize=auto;html=1;" parent="1" source="-h9XOO3ejCWppk7EF09S-1" target="-h9XOO3ejCWppk7EF09S-23" edge="1">
          <mxGeometry relative="1" as="geometry" />
        </mxCell>
        <mxCell id="-h9XOO3ejCWppk7EF09S-41" style="edgeStyle=orthogonalEdgeStyle;rounded=0;orthogonalLoop=1;jettySize=auto;html=1;entryX=0;entryY=0.5;entryDx=0;entryDy=0;" parent="1" source="-h9XOO3ejCWppk7EF09S-1" target="-h9XOO3ejCWppk7EF09S-36" edge="1">
          <mxGeometry relative="1" as="geometry">
            <Array as="points">
              <mxPoint x="90" y="440" />
            </Array>
          </mxGeometry>
        </mxCell>
        <mxCell id="-h9XOO3ejCWppk7EF09S-69" style="edgeStyle=orthogonalEdgeStyle;rounded=0;orthogonalLoop=1;jettySize=auto;html=1;" parent="1" source="-h9XOO3ejCWppk7EF09S-1" edge="1">
          <mxGeometry relative="1" as="geometry">
            <mxPoint x="90" y="630" as="targetPoint" />
          </mxGeometry>
        </mxCell>
        <mxCell id="-h9XOO3ejCWppk7EF09S-1" value="start" style="ellipse;whiteSpace=wrap;html=1;" parent="1" vertex="1">
          <mxGeometry x="30" y="240" width="120" height="80" as="geometry" />
        </mxCell>
        <mxCell id="-h9XOO3ejCWppk7EF09S-4" value="" style="edgeStyle=orthogonalEdgeStyle;rounded=0;orthogonalLoop=1;jettySize=auto;html=1;" parent="1" source="-h9XOO3ejCWppk7EF09S-8" target="-h9XOO3ejCWppk7EF09S-3" edge="1">
          <mxGeometry relative="1" as="geometry" />
        </mxCell>
        <mxCell id="-h9XOO3ejCWppk7EF09S-2" value="snt(a)" style="shape=parallelogram;perimeter=parallelogramPerimeter;whiteSpace=wrap;html=1;fixedSize=1;" parent="1" vertex="1">
          <mxGeometry x="30" y="40" width="120" height="60" as="geometry" />
        </mxCell>
        <mxCell id="-h9XOO3ejCWppk7EF09S-6" value="" style="edgeStyle=orthogonalEdgeStyle;rounded=0;orthogonalLoop=1;jettySize=auto;html=1;" parent="1" source="-h9XOO3ejCWppk7EF09S-3" edge="1">
          <mxGeometry relative="1" as="geometry">
            <mxPoint x="390" y="70" as="targetPoint" />
          </mxGeometry>
        </mxCell>
        <mxCell id="-h9XOO3ejCWppk7EF09S-17" style="edgeStyle=orthogonalEdgeStyle;rounded=0;orthogonalLoop=1;jettySize=auto;html=1;entryX=0.5;entryY=0;entryDx=0;entryDy=0;" parent="1" source="-h9XOO3ejCWppk7EF09S-3" target="-h9XOO3ejCWppk7EF09S-16" edge="1">
          <mxGeometry relative="1" as="geometry">
            <Array as="points">
              <mxPoint x="310" y="-30" />
              <mxPoint x="770" y="-30" />
            </Array>
          </mxGeometry>
        </mxCell>
        <mxCell id="-h9XOO3ejCWppk7EF09S-3" value="i&amp;lt;sqrt(n)" style="rhombus;whiteSpace=wrap;html=1;" parent="1" vertex="1">
          <mxGeometry x="270" y="30" width="80" height="80" as="geometry" />
        </mxCell>
        <mxCell id="-h9XOO3ejCWppk7EF09S-11" value="" style="edgeStyle=orthogonalEdgeStyle;rounded=0;orthogonalLoop=1;jettySize=auto;html=1;" parent="1" source="-h9XOO3ejCWppk7EF09S-7" target="-h9XOO3ejCWppk7EF09S-10" edge="1">
          <mxGeometry relative="1" as="geometry" />
        </mxCell>
        <mxCell id="-h9XOO3ejCWppk7EF09S-12" style="edgeStyle=orthogonalEdgeStyle;rounded=0;orthogonalLoop=1;jettySize=auto;html=1;entryX=0.5;entryY=1;entryDx=0;entryDy=0;" parent="1" source="-h9XOO3ejCWppk7EF09S-7" target="-h9XOO3ejCWppk7EF09S-3" edge="1">
          <mxGeometry relative="1" as="geometry">
            <Array as="points">
              <mxPoint x="430" y="170" />
              <mxPoint x="310" y="170" />
            </Array>
          </mxGeometry>
        </mxCell>
        <mxCell id="-h9XOO3ejCWppk7EF09S-7" value="n%i == 0" style="rhombus;whiteSpace=wrap;html=1;" parent="1" vertex="1">
          <mxGeometry x="390" y="30" width="80" height="80" as="geometry" />
        </mxCell>
        <mxCell id="-h9XOO3ejCWppk7EF09S-9" value="" style="edgeStyle=orthogonalEdgeStyle;rounded=0;orthogonalLoop=1;jettySize=auto;html=1;" parent="1" source="-h9XOO3ejCWppk7EF09S-2" target="-h9XOO3ejCWppk7EF09S-8" edge="1">
          <mxGeometry relative="1" as="geometry">
            <mxPoint x="140" y="70" as="sourcePoint" />
            <mxPoint x="250" y="70" as="targetPoint" />
          </mxGeometry>
        </mxCell>
        <mxCell id="-h9XOO3ejCWppk7EF09S-8" value="i = 2;" style="rounded=1;whiteSpace=wrap;html=1;" parent="1" vertex="1">
          <mxGeometry x="170" y="40" width="60" height="60" as="geometry" />
        </mxCell>
        <mxCell id="-h9XOO3ejCWppk7EF09S-10" value="return false;&lt;br&gt;" style="whiteSpace=wrap;html=1;" parent="1" vertex="1">
          <mxGeometry x="530" y="40" width="120" height="60" as="geometry" />
        </mxCell>
        <mxCell id="-h9XOO3ejCWppk7EF09S-13" value="true" style="text;html=1;strokeColor=none;fillColor=none;align=center;verticalAlign=middle;whiteSpace=wrap;rounded=0;" parent="1" vertex="1">
          <mxGeometry x="460" y="40" width="60" height="30" as="geometry" />
        </mxCell>
        <mxCell id="-h9XOO3ejCWppk7EF09S-14" value="false" style="text;html=1;strokeColor=none;fillColor=none;align=center;verticalAlign=middle;whiteSpace=wrap;rounded=0;" parent="1" vertex="1">
          <mxGeometry x="340" y="140" width="60" height="30" as="geometry" />
        </mxCell>
        <mxCell id="-h9XOO3ejCWppk7EF09S-15" value="true" style="text;html=1;strokeColor=none;fillColor=none;align=center;verticalAlign=middle;whiteSpace=wrap;rounded=0;" parent="1" vertex="1">
          <mxGeometry x="340" y="40" width="60" height="30" as="geometry" />
        </mxCell>
        <mxCell id="-h9XOO3ejCWppk7EF09S-16" value="return true" style="rounded=0;whiteSpace=wrap;html=1;" parent="1" vertex="1">
          <mxGeometry x="710" y="40" width="120" height="60" as="geometry" />
        </mxCell>
        <mxCell id="-h9XOO3ejCWppk7EF09S-18" value="false" style="text;html=1;strokeColor=none;fillColor=none;align=center;verticalAlign=middle;whiteSpace=wrap;rounded=0;" parent="1" vertex="1">
          <mxGeometry x="510" y="-70" width="60" height="30" as="geometry" />
        </mxCell>
        <mxCell id="-h9XOO3ejCWppk7EF09S-19" value="" style="edgeStyle=orthogonalEdgeStyle;rounded=0;orthogonalLoop=1;jettySize=auto;html=1;" parent="1" source="-h9XOO3ejCWppk7EF09S-21" target="-h9XOO3ejCWppk7EF09S-20" edge="1">
          <mxGeometry relative="1" as="geometry" />
        </mxCell>
        <mxCell id="-h9XOO3ejCWppk7EF09S-27" value="" style="edgeStyle=orthogonalEdgeStyle;rounded=0;orthogonalLoop=1;jettySize=auto;html=1;" parent="1" source="-h9XOO3ejCWppk7EF09S-20" target="-h9XOO3ejCWppk7EF09S-26" edge="1">
          <mxGeometry relative="1" as="geometry" />
        </mxCell>
        <mxCell id="-h9XOO3ejCWppk7EF09S-20" value="i&amp;lt;n" style="rhombus;whiteSpace=wrap;html=1;" parent="1" vertex="1">
          <mxGeometry x="510" y="240" width="80" height="80" as="geometry" />
        </mxCell>
        <mxCell id="-h9XOO3ejCWppk7EF09S-21" value="i = 0" style="rounded=1;whiteSpace=wrap;html=1;" parent="1" vertex="1">
          <mxGeometry x="410" y="250" width="60" height="60" as="geometry" />
        </mxCell>
        <mxCell id="-h9XOO3ejCWppk7EF09S-25" value="" style="edgeStyle=orthogonalEdgeStyle;rounded=0;orthogonalLoop=1;jettySize=auto;html=1;" parent="1" source="-h9XOO3ejCWppk7EF09S-23" target="-h9XOO3ejCWppk7EF09S-21" edge="1">
          <mxGeometry relative="1" as="geometry" />
        </mxCell>
        <mxCell id="-h9XOO3ejCWppk7EF09S-23" value="input n" style="shape=parallelogram;perimeter=parallelogramPerimeter;whiteSpace=wrap;html=1;fixedSize=1;" parent="1" vertex="1">
          <mxGeometry x="230" y="250" width="120" height="60" as="geometry" />
        </mxCell>
        <mxCell id="-h9XOO3ejCWppk7EF09S-29" value="" style="edgeStyle=orthogonalEdgeStyle;rounded=0;orthogonalLoop=1;jettySize=auto;html=1;" parent="1" source="-h9XOO3ejCWppk7EF09S-26" target="-h9XOO3ejCWppk7EF09S-28" edge="1">
          <mxGeometry relative="1" as="geometry" />
        </mxCell>
        <mxCell id="-h9XOO3ejCWppk7EF09S-26" value="input arr1[i]" style="shape=parallelogram;perimeter=parallelogramPerimeter;whiteSpace=wrap;html=1;fixedSize=1;" parent="1" vertex="1">
          <mxGeometry x="650" y="250" width="120" height="60" as="geometry" />
        </mxCell>
        <mxCell id="-h9XOO3ejCWppk7EF09S-30" style="edgeStyle=orthogonalEdgeStyle;rounded=0;orthogonalLoop=1;jettySize=auto;html=1;entryX=0.5;entryY=0;entryDx=0;entryDy=0;" parent="1" source="-h9XOO3ejCWppk7EF09S-28" target="-h9XOO3ejCWppk7EF09S-20" edge="1">
          <mxGeometry relative="1" as="geometry">
            <Array as="points">
              <mxPoint x="910" y="170" />
              <mxPoint x="550" y="170" />
            </Array>
          </mxGeometry>
        </mxCell>
        <mxCell id="-h9XOO3ejCWppk7EF09S-28" value="i++" style="whiteSpace=wrap;html=1;" parent="1" vertex="1">
          <mxGeometry x="850" y="250" width="120" height="60" as="geometry" />
        </mxCell>
        <mxCell id="-h9XOO3ejCWppk7EF09S-31" value="" style="edgeStyle=orthogonalEdgeStyle;rounded=0;orthogonalLoop=1;jettySize=auto;html=1;" parent="1" source="-h9XOO3ejCWppk7EF09S-34" target="-h9XOO3ejCWppk7EF09S-33" edge="1">
          <mxGeometry relative="1" as="geometry" />
        </mxCell>
        <mxCell id="-h9XOO3ejCWppk7EF09S-32" value="" style="edgeStyle=orthogonalEdgeStyle;rounded=0;orthogonalLoop=1;jettySize=auto;html=1;" parent="1" source="-h9XOO3ejCWppk7EF09S-33" target="-h9XOO3ejCWppk7EF09S-38" edge="1">
          <mxGeometry relative="1" as="geometry" />
        </mxCell>
        <mxCell id="-h9XOO3ejCWppk7EF09S-33" value="i&amp;lt;m" style="rhombus;whiteSpace=wrap;html=1;" parent="1" vertex="1">
          <mxGeometry x="510" y="400" width="80" height="80" as="geometry" />
        </mxCell>
        <mxCell id="-h9XOO3ejCWppk7EF09S-34" value="i = 0" style="rounded=1;whiteSpace=wrap;html=1;" parent="1" vertex="1">
          <mxGeometry x="410" y="410" width="60" height="60" as="geometry" />
        </mxCell>
        <mxCell id="-h9XOO3ejCWppk7EF09S-35" value="" style="edgeStyle=orthogonalEdgeStyle;rounded=0;orthogonalLoop=1;jettySize=auto;html=1;" parent="1" source="-h9XOO3ejCWppk7EF09S-36" target="-h9XOO3ejCWppk7EF09S-34" edge="1">
          <mxGeometry relative="1" as="geometry" />
        </mxCell>
        <mxCell id="-h9XOO3ejCWppk7EF09S-36" value="input m" style="shape=parallelogram;perimeter=parallelogramPerimeter;whiteSpace=wrap;html=1;fixedSize=1;" parent="1" vertex="1">
          <mxGeometry x="230" y="410" width="120" height="60" as="geometry" />
        </mxCell>
        <mxCell id="-h9XOO3ejCWppk7EF09S-37" value="" style="edgeStyle=orthogonalEdgeStyle;rounded=0;orthogonalLoop=1;jettySize=auto;html=1;" parent="1" source="-h9XOO3ejCWppk7EF09S-38" target="-h9XOO3ejCWppk7EF09S-40" edge="1">
          <mxGeometry relative="1" as="geometry" />
        </mxCell>
        <mxCell id="-h9XOO3ejCWppk7EF09S-38" value="input arr2[i]" style="shape=parallelogram;perimeter=parallelogramPerimeter;whiteSpace=wrap;html=1;fixedSize=1;" parent="1" vertex="1">
          <mxGeometry x="650" y="410" width="120" height="60" as="geometry" />
        </mxCell>
        <mxCell id="-h9XOO3ejCWppk7EF09S-39" style="edgeStyle=orthogonalEdgeStyle;rounded=0;orthogonalLoop=1;jettySize=auto;html=1;entryX=0.5;entryY=0;entryDx=0;entryDy=0;" parent="1" source="-h9XOO3ejCWppk7EF09S-40" target="-h9XOO3ejCWppk7EF09S-33" edge="1">
          <mxGeometry relative="1" as="geometry">
            <Array as="points">
              <mxPoint x="910" y="330" />
              <mxPoint x="550" y="330" />
            </Array>
          </mxGeometry>
        </mxCell>
        <mxCell id="-h9XOO3ejCWppk7EF09S-68" value="" style="edgeStyle=orthogonalEdgeStyle;rounded=0;orthogonalLoop=1;jettySize=auto;html=1;" parent="1" source="-h9XOO3ejCWppk7EF09S-40" target="-h9XOO3ejCWppk7EF09S-61" edge="1">
          <mxGeometry relative="1" as="geometry" />
        </mxCell>
        <mxCell id="-h9XOO3ejCWppk7EF09S-40" value="i++" style="whiteSpace=wrap;html=1;" parent="1" vertex="1">
          <mxGeometry x="850" y="410" width="120" height="60" as="geometry" />
        </mxCell>
        <mxCell id="-h9XOO3ejCWppk7EF09S-42" value="" style="edgeStyle=orthogonalEdgeStyle;rounded=0;orthogonalLoop=1;jettySize=auto;html=1;" parent="1" source="-h9XOO3ejCWppk7EF09S-45" target="-h9XOO3ejCWppk7EF09S-44" edge="1">
          <mxGeometry relative="1" as="geometry" />
        </mxCell>
        <mxCell id="-h9XOO3ejCWppk7EF09S-43" value="" style="edgeStyle=orthogonalEdgeStyle;rounded=0;orthogonalLoop=1;jettySize=auto;html=1;" parent="1" source="-h9XOO3ejCWppk7EF09S-44" edge="1">
          <mxGeometry relative="1" as="geometry">
            <mxPoint x="1290" y="280" as="targetPoint" />
          </mxGeometry>
        </mxCell>
        <mxCell id="-h9XOO3ejCWppk7EF09S-44" value="i&amp;lt;n" style="rhombus;whiteSpace=wrap;html=1;" parent="1" vertex="1">
          <mxGeometry x="1140" y="240" width="80" height="80" as="geometry" />
        </mxCell>
        <mxCell id="-h9XOO3ejCWppk7EF09S-45" value="i = 0" style="rounded=1;whiteSpace=wrap;html=1;" parent="1" vertex="1">
          <mxGeometry x="1040" y="250" width="60" height="60" as="geometry" />
        </mxCell>
        <mxCell id="-h9XOO3ejCWppk7EF09S-46" value="" style="edgeStyle=orthogonalEdgeStyle;rounded=0;orthogonalLoop=1;jettySize=auto;html=1;" parent="1" target="-h9XOO3ejCWppk7EF09S-45" edge="1">
          <mxGeometry relative="1" as="geometry">
            <mxPoint x="970" y="280.00000000000006" as="sourcePoint" />
          </mxGeometry>
        </mxCell>
        <mxCell id="-h9XOO3ejCWppk7EF09S-50" style="edgeStyle=orthogonalEdgeStyle;rounded=0;orthogonalLoop=1;jettySize=auto;html=1;entryX=0.5;entryY=0;entryDx=0;entryDy=0;" parent="1" source="-h9XOO3ejCWppk7EF09S-51" target="-h9XOO3ejCWppk7EF09S-44" edge="1">
          <mxGeometry relative="1" as="geometry">
            <Array as="points">
              <mxPoint x="1630" y="170" />
              <mxPoint x="1180" y="170" />
            </Array>
          </mxGeometry>
        </mxCell>
        <mxCell id="-h9XOO3ejCWppk7EF09S-51" value="i++&lt;br&gt;count1++" style="whiteSpace=wrap;html=1;" parent="1" vertex="1">
          <mxGeometry x="1570" y="250" width="120" height="60" as="geometry" />
        </mxCell>
        <mxCell id="-h9XOO3ejCWppk7EF09S-55" value="" style="edgeStyle=orthogonalEdgeStyle;rounded=0;orthogonalLoop=1;jettySize=auto;html=1;" parent="1" source="-h9XOO3ejCWppk7EF09S-53" edge="1">
          <mxGeometry relative="1" as="geometry">
            <mxPoint x="1400" y="280.0588235294117" as="targetPoint" />
          </mxGeometry>
        </mxCell>
        <mxCell id="-h9XOO3ejCWppk7EF09S-53" value="snt(ar1[i])" style="rhombus;whiteSpace=wrap;html=1;" parent="1" vertex="1">
          <mxGeometry x="1290" y="240" width="80" height="80" as="geometry" />
        </mxCell>
        <mxCell id="-h9XOO3ejCWppk7EF09S-56" value="" style="edgeStyle=orthogonalEdgeStyle;rounded=0;orthogonalLoop=1;jettySize=auto;html=1;exitX=1;exitY=0.5;exitDx=0;exitDy=0;" parent="1" source="-h9XOO3ejCWppk7EF09S-57" target="-h9XOO3ejCWppk7EF09S-51" edge="1">
          <mxGeometry relative="1" as="geometry">
            <mxPoint x="1520" y="280" as="sourcePoint" />
          </mxGeometry>
        </mxCell>
        <mxCell id="-h9XOO3ejCWppk7EF09S-57" value="output arr1[i]" style="shape=parallelogram;perimeter=parallelogramPerimeter;whiteSpace=wrap;html=1;fixedSize=1;" parent="1" vertex="1">
          <mxGeometry x="1390" y="250" width="120" height="60" as="geometry" />
        </mxCell>
        <mxCell id="-h9XOO3ejCWppk7EF09S-58" value="" style="edgeStyle=orthogonalEdgeStyle;rounded=0;orthogonalLoop=1;jettySize=auto;html=1;" parent="1" source="-h9XOO3ejCWppk7EF09S-61" target="-h9XOO3ejCWppk7EF09S-60" edge="1">
          <mxGeometry relative="1" as="geometry" />
        </mxCell>
        <mxCell id="-h9XOO3ejCWppk7EF09S-59" value="" style="edgeStyle=orthogonalEdgeStyle;rounded=0;orthogonalLoop=1;jettySize=auto;html=1;" parent="1" source="-h9XOO3ejCWppk7EF09S-60" edge="1">
          <mxGeometry relative="1" as="geometry">
            <mxPoint x="1290" y="440" as="targetPoint" />
          </mxGeometry>
        </mxCell>
        <mxCell id="-h9XOO3ejCWppk7EF09S-60" value="i&amp;lt;m" style="rhombus;whiteSpace=wrap;html=1;" parent="1" vertex="1">
          <mxGeometry x="1140" y="400" width="80" height="80" as="geometry" />
        </mxCell>
        <mxCell id="-h9XOO3ejCWppk7EF09S-61" value="i = 0" style="rounded=1;whiteSpace=wrap;html=1;" parent="1" vertex="1">
          <mxGeometry x="1040" y="410" width="60" height="60" as="geometry" />
        </mxCell>
        <mxCell id="-h9XOO3ejCWppk7EF09S-62" style="edgeStyle=orthogonalEdgeStyle;rounded=0;orthogonalLoop=1;jettySize=auto;html=1;entryX=0.5;entryY=0;entryDx=0;entryDy=0;" parent="1" source="-h9XOO3ejCWppk7EF09S-63" target="-h9XOO3ejCWppk7EF09S-60" edge="1">
          <mxGeometry relative="1" as="geometry">
            <Array as="points">
              <mxPoint x="1630" y="330" />
              <mxPoint x="1180" y="330" />
            </Array>
          </mxGeometry>
        </mxCell>
        <mxCell id="-h9XOO3ejCWppk7EF09S-63" value="i++&lt;br&gt;count2++" style="whiteSpace=wrap;html=1;" parent="1" vertex="1">
          <mxGeometry x="1570" y="410" width="120" height="60" as="geometry" />
        </mxCell>
        <mxCell id="-h9XOO3ejCWppk7EF09S-64" value="" style="edgeStyle=orthogonalEdgeStyle;rounded=0;orthogonalLoop=1;jettySize=auto;html=1;" parent="1" source="-h9XOO3ejCWppk7EF09S-65" edge="1">
          <mxGeometry relative="1" as="geometry">
            <mxPoint x="1400" y="440.0588235294117" as="targetPoint" />
          </mxGeometry>
        </mxCell>
        <mxCell id="-h9XOO3ejCWppk7EF09S-65" value="snt(arr2[i])" style="rhombus;whiteSpace=wrap;html=1;" parent="1" vertex="1">
          <mxGeometry x="1290" y="400" width="80" height="80" as="geometry" />
        </mxCell>
        <mxCell id="-h9XOO3ejCWppk7EF09S-66" value="" style="edgeStyle=orthogonalEdgeStyle;rounded=0;orthogonalLoop=1;jettySize=auto;html=1;exitX=1;exitY=0.5;exitDx=0;exitDy=0;" parent="1" source="-h9XOO3ejCWppk7EF09S-67" target="-h9XOO3ejCWppk7EF09S-63" edge="1">
          <mxGeometry relative="1" as="geometry">
            <mxPoint x="1520" y="440" as="sourcePoint" />
          </mxGeometry>
        </mxCell>
        <mxCell id="-h9XOO3ejCWppk7EF09S-67" value="output arr2[i]" style="shape=parallelogram;perimeter=parallelogramPerimeter;whiteSpace=wrap;html=1;fixedSize=1;" parent="1" vertex="1">
          <mxGeometry x="1390" y="410" width="120" height="60" as="geometry" />
        </mxCell>
        <mxCell id="-h9XOO3ejCWppk7EF09S-72" value="" style="edgeStyle=orthogonalEdgeStyle;rounded=0;orthogonalLoop=1;jettySize=auto;html=1;" parent="1" source="-h9XOO3ejCWppk7EF09S-70" target="-h9XOO3ejCWppk7EF09S-71" edge="1">
          <mxGeometry relative="1" as="geometry" />
        </mxCell>
        <mxCell id="-h9XOO3ejCWppk7EF09S-75" style="edgeStyle=orthogonalEdgeStyle;rounded=0;orthogonalLoop=1;jettySize=auto;html=1;entryX=0;entryY=0.5;entryDx=0;entryDy=0;" parent="1" source="-h9XOO3ejCWppk7EF09S-70" target="-h9XOO3ejCWppk7EF09S-74" edge="1">
          <mxGeometry relative="1" as="geometry">
            <Array as="points">
              <mxPoint x="180" y="730" />
            </Array>
          </mxGeometry>
        </mxCell>
        <mxCell id="-h9XOO3ejCWppk7EF09S-70" value="count1 &amp;gt; count2" style="rhombus;whiteSpace=wrap;html=1;" parent="1" vertex="1">
          <mxGeometry x="90" y="590" width="180" height="80" as="geometry" />
        </mxCell>
        <mxCell id="-h9XOO3ejCWppk7EF09S-71" value="output arr1" style="shape=parallelogram;perimeter=parallelogramPerimeter;whiteSpace=wrap;html=1;fixedSize=1;" parent="1" vertex="1">
          <mxGeometry x="330" y="600" width="120" height="60" as="geometry" />
        </mxCell>
        <mxCell id="-h9XOO3ejCWppk7EF09S-74" value="output ar2" style="shape=parallelogram;perimeter=parallelogramPerimeter;whiteSpace=wrap;html=1;fixedSize=1;" parent="1" vertex="1">
          <mxGeometry x="330" y="700" width="120" height="60" as="geometry" />
        </mxCell>
        <mxCell id="-h9XOO3ejCWppk7EF09S-76" value="true" style="text;html=1;strokeColor=none;fillColor=none;align=center;verticalAlign=middle;whiteSpace=wrap;rounded=0;" parent="1" vertex="1">
          <mxGeometry x="270" y="600" width="60" height="30" as="geometry" />
        </mxCell>
        <mxCell id="-h9XOO3ejCWppk7EF09S-77" value="false" style="text;html=1;strokeColor=none;fillColor=none;align=center;verticalAlign=middle;whiteSpace=wrap;rounded=0;" parent="1" vertex="1">
          <mxGeometry x="230" y="690" width="60" height="30" as="geometry" />
        </mxCell>
      </root>
    </mxGraphModel>
  </diagram>
</mxfile>
